<svg width="11" height="12" viewBox="0 0 11 12" fill="none" xmlns="http://www.w3.org/2000/svg">
<path d="M9.67912 8.0135C9.35658 8.88765 8.86879 9.64772 8.22911 10.2724C7.50099 10.9834 6.54756 11.5483 5.39528 11.9514C5.35747 11.9645 5.31801 11.9753 5.27837 11.9833C5.226 11.9937 5.17272 11.9992 5.11989 12H5.10955C5.05324 12 4.99666 11.9943 4.94054 11.9833C4.9009 11.9753 4.86199 11.9645 4.82436 11.9516C3.67071 11.5493 2.71609 10.9846 1.98724 10.2736C1.34728 9.64891 0.859584 8.88929 0.537502 8.01515C-0.04816 6.4258 -0.0148348 4.67494 0.0119901 3.26796L0.0124478 3.24636C0.0178494 3.13018 0.0213284 3.00814 0.0232511 2.87337C0.0330472 2.21172 0.559108 1.66433 1.22085 1.62743C2.60055 1.55044 3.66787 1.10046 4.57982 0.211572L4.58779 0.204247C4.73922 0.0653621 4.93001 -0.002753 5.11989 8.51461e-05C5.303 0.00246552 5.48537 0.0704891 5.6314 0.204247L5.63918 0.211572C6.55132 1.10046 7.61864 1.55044 8.99834 1.62743C9.66008 1.66433 10.1861 2.21172 10.1959 2.87337C10.1979 3.00905 10.2013 3.13091 10.2067 3.24636L10.207 3.25551C10.2337 4.66515 10.2669 6.41948 9.67912 8.0135Z" fill="#00DD80"/>
<path d="M9.67935 8.01366C9.35681 8.8878 8.86901 9.64787 8.22934 10.2725C7.50122 10.9835 6.54779 11.5485 5.39551 11.9515C5.3577 11.9647 5.31824 11.9755 5.27859 11.9835C5.22623 11.9938 5.17294 11.9994 5.12012 12.0001V0.000244141C5.30322 0.00262451 5.4856 0.0706481 5.63162 0.204406L5.6394 0.211731C6.55154 1.10061 7.61886 1.5506 8.99856 1.62759C9.6603 1.66449 10.1864 2.21188 10.1962 2.87353C10.1981 3.00921 10.2016 3.13107 10.207 3.24652L10.2072 3.25567C10.234 4.66531 10.2671 6.41964 9.67935 8.01366Z" fill="#00AA63"/>
<path d="M8.09957 6.00006C8.09957 7.64553 6.76354 8.98495 5.11944 8.99081H5.10891C3.45996 8.99081 2.11816 7.6491 2.11816 6.00006C2.11816 4.3511 3.45996 3.0094 5.10891 3.0094H5.11944C6.76354 3.01526 8.09957 4.35467 8.09957 6.00006Z" fill="white"/>
<path d="M8.10025 6.00006C8.10025 7.64553 6.76422 8.98495 5.12012 8.99081V3.0094C6.76422 3.01526 8.10025 4.35467 8.10025 6.00006Z" fill="#E1EBF0"/>
<path d="M6.46656 5.56933L5.11964 6.91643L4.8286 7.20748C4.75984 7.27623 4.66966 7.31057 4.57957 7.31057C4.48939 7.31057 4.39931 7.27623 4.33046 7.20748L3.7047 6.58144C3.56718 6.44393 3.56718 6.22118 3.7047 6.08358C3.84203 5.94607 4.06505 5.94607 4.20256 6.08358L4.57957 6.46059L5.9687 5.07146C6.10621 4.93386 6.32924 4.93386 6.46656 5.07146C6.60408 5.20898 6.60408 5.432 6.46656 5.56933Z" fill="#B4D2D7"/>
<path d="M6.46704 5.56933L5.12012 6.91643V5.92043L5.96918 5.07146C6.10669 4.93386 6.32971 4.93386 6.46704 5.07146C6.60455 5.20898 6.60455 5.432 6.46704 5.56933Z" fill="#6FA5AA"/>
</svg>
