<svg width="8" height="11" viewBox="0 0 8 11" fill="none" xmlns="http://www.w3.org/2000/svg">
<path d="M7.44434 1.88369C6.73826 0.731618 5.48413 0.0277685 4.0895 0.000870116C4.02997 -0.000290039 3.97005 -0.000290039 3.91049 0.000870116C2.51589 0.0277685 1.26175 0.731618 0.555656 1.88369C-0.166074 3.0613 -0.18582 4.47582 0.502825 5.66758L3.38781 10.6603C3.38911 10.6625 3.3904 10.6647 3.39175 10.6669C3.51868 10.8755 3.74607 11 4.00004 11C4.254 11 4.48139 10.8755 4.60829 10.6669C4.60963 10.6647 4.61093 10.6625 4.61222 10.6603L7.49721 5.66758C8.18581 4.47582 8.16607 3.0613 7.44434 1.88369ZM4 4.98438C3.09787 4.98438 2.36394 4.29046 2.36394 3.43751C2.36394 2.58456 3.09787 1.89063 4 1.89063C4.90213 1.89063 5.63606 2.58456 5.63606 3.43751C5.63606 4.29046 4.90215 4.98438 4 4.98438Z" fill="#1780E2"/>
</svg>
