<svg width="9" height="9" viewBox="0 0 9 9" fill="none" xmlns="http://www.w3.org/2000/svg">
<path d="M8.97652 3.40099C8.91761 3.21083 8.75597 3.07576 8.56473 3.05778L5.96709 2.81165L4.93991 0.302876C4.86417 0.119015 4.69168 0 4.50004 0C4.30839 0 4.1359 0.119015 4.06016 0.303306L3.03298 2.81165L0.43493 3.05778C0.244038 3.07619 0.0828103 3.21083 0.0235514 3.40099C-0.0357075 3.59116 0.0190194 3.79974 0.163424 3.93122L2.12693 5.72813L1.54794 8.38952C1.50557 8.5852 1.57836 8.78748 1.73396 8.90485C1.81759 8.9679 1.91544 9 2.01411 9C2.09919 9 2.18358 8.97607 2.25932 8.92878L4.50004 7.53134L6.73993 8.92878C6.90383 9.03167 7.11045 9.02228 7.2657 8.90485C7.42137 8.78712 7.49409 8.58477 7.45172 8.38952L6.87273 5.72813L8.83624 3.93158C8.98064 3.79974 9.03578 3.59152 8.97652 3.40099Z" fill="#FFC107"/>
</svg>
